# xmcd
#
# Track frame offsets: 
#        150
#        18802
#        31692
#        48732
#        65575
#        78865
#
# Disc length: 1334 seconds
#
# Revision: 0
# Processed by: cddbd v1.5.2PL0 Copyright (c) Steve Scherf et al.
# Submitted via: ExactAudioCopy v1.1
#
DISCID=3e053406
DTITLE=vivid undress  - 赤裸々
DYEAR=2019
DGENRE=A Cappella
TTITLE0=スクランブル
TTITLE1=盲目の世界から脱出せよ
TTITLE2=劣等者の逆襲
TTITLE3=輪廻転生
TTITLE4=アルティメット・サバイバル
TTITLE5=シンガーソングライター
EXTD=
EXTT0=
EXTT1=
EXTT2=
EXTT3=
EXTT4=
EXTT5=
PLAYORDER=
